<?xml version="1.0" encoding="UTF-8"?>
<svg width="18px" height="18px" viewBox="0 0 18 18" version="1.1" xmlns="http://www.w3.org/2000/svg" xmlns:xlink="http://www.w3.org/1999/xlink">
    <title>形状结合</title>
    <g id="页面-1" stroke="none" stroke-width="1" fill="none" fill-rule="evenodd">
        <g id="Lock-KTON" transform="translate(-896.000000, -533.000000)" fill="#F93F3F" fill-rule="nonzero">
            <g id="编组-2" transform="translate(524.000000, 533.000000)">
                <path d="M381.000448,-8.8817842e-14 C385.970506,-8.8817842e-14 390,4.02949366 390,9.00044826 C390,13.9714029 385.970489,18.0008965 381.000448,18.0008965 C376.029494,18.0008965 372,13.9714029 372,9.00044826 C372,4.02949366 376.029494,-8.8817842e-14 381.000448,-8.8817842e-14 Z M378.657715,5.19114142 C378.265424,4.88611653 377.698193,4.91384607 377.337709,5.27433003 L377.337709,5.27433003 L377.27433,5.33770872 L377.191141,5.43191606 C376.886117,5.82420726 376.913846,6.39143832 377.27433,6.75192228 L377.27433,6.75192228 L379.523,9 L377.27433,11.2480777 C376.883806,11.638602 376.883806,12.271767 377.27433,12.6622913 L377.27433,12.6622913 L377.337709,12.72567 C377.728233,13.1161943 378.361398,13.1161943 378.751922,12.72567 L378.751922,12.72567 L381,10.477 L383.248078,12.72567 L383.342285,12.8088586 C383.734576,13.1138835 384.301807,13.0861539 384.662291,12.72567 L384.662291,12.72567 L384.72567,12.6622913 L384.808859,12.5680839 C385.113883,12.1757927 385.086154,11.6085617 384.72567,11.2480777 L384.72567,11.2480777 L382.477,9 L384.72567,6.75192228 C385.116194,6.36139799 385.116194,5.72823301 384.72567,5.33770872 L384.72567,5.33770872 L384.662291,5.27433003 C384.271767,4.88380574 383.638602,4.88380574 383.248078,5.27433003 L383.248078,5.27433003 L381,7.523 L378.751922,5.27433003 Z" id="形状结合"></path>
            </g>
        </g>
    </g>
</svg>