<?xml version="1.0" encoding="UTF-8"?>
<svg width="34px" height="34px" viewBox="0 0 34 34" version="1.1" xmlns="http://www.w3.org/2000/svg" xmlns:xlink="http://www.w3.org/1999/xlink">
    <title>Icon/菜单黑</title>
    <g id="Icon/菜单黑" stroke="none" stroke-width="1" fill="none" fill-rule="evenodd">
        <path d="M27,24 L27,26 L7,26 L7,24 L27,24 Z M27,15 L27,17 L7,17 L7,15 L27,15 Z M27,6 L27,8 L7,8 L7,6 L27,6 Z" id="形状结合" fill="#FFFFFF"></path>
        <path d="M27,25 L27,27 L7,27 L7,25 L27,25 Z M27,16 L27,18 L7,18 L7,16 L27,16 Z M27,7 L27,9 L7,9 L7,7 L27,7 Z" id="形状结合" fill="#FFFFFF"></path>
    </g>
</svg>