<?xml version="1.0" encoding="UTF-8"?>
<svg width="18px" height="18px" viewBox="0 0 18 18" version="1.1" xmlns="http://www.w3.org/2000/svg" xmlns:xlink="http://www.w3.org/1999/xlink">
    <title>路径</title>
    <g id="页面-1" stroke="none" stroke-width="1" fill="none" fill-rule="evenodd">
        <g id="Lock-KTON" transform="translate(-896.000000, -505.000000)" fill="#3FF9E7" fill-rule="nonzero">
            <g id="编组-3" transform="translate(524.000000, 505.000000)">
                <path d="M381.002915,18 L381.002915,18 C385.97348,17.9983904 390.00161,13.9676503 390,8.99708509 C389.99839,4.02651994 385.96765,-0.00161038561 380.997085,0 C376.02652,0.00160959687 371.99839,4.03234975 372,9.00291491 C372.00031,9.96021 372.153348,10.9113263 372.453343,11.8204008 L372.453343,11.8204008 C372.580347,12.2543113 373.035058,12.5031099 373.468969,12.3761044 C373.902879,12.2491005 374.151678,11.7943891 374.024672,11.3604786 C374.019435,11.3425837 374.013587,11.3248729 374.00714,11.3073773 L374.00714,11.3073767 C372.73281,7.44516583 374.8307,3.28118558 378.692907,2.00685429 C382.555118,0.732524915 386.719098,2.83041469 387.993429,6.69262172 C389.267759,10.5548326 387.169869,14.7188128 383.307662,15.9931441 C382.564016,16.2385082 381.785991,16.3636899 381.002912,16.3639699 L381.002912,16.3639699 C380.551134,16.3464672 380.170708,16.6985166 380.153205,17.1502924 C380.135703,17.6020701 380.487752,17.9824959 380.939528,18 C380.960647,18.0008169 380.98179,18.0008169 381.00291,18 L381.002915,18 Z" id="路径"></path>
            </g>
        </g>
    </g>
</svg>