<?xml version="1.0" encoding="UTF-8"?>
<svg width="18px" height="18px" viewBox="0 0 18 18" version="1.1" xmlns="http://www.w3.org/2000/svg" xmlns:xlink="http://www.w3.org/1999/xlink">
    <title>形状</title>
    <g id="页面-1" stroke="none" stroke-width="1" fill="none" fill-rule="evenodd">
        <g id="Lock-KTON" transform="translate(-896.000000, -533.000000)" fill="#3FF955" fill-rule="nonzero">
            <g id="编组-2" transform="translate(524.000000, 533.000000)">
                <path d="M381.000448,0 C376.029494,0 372,4.02949366 372,9.00044826 C372,13.9714029 376.029494,18.0008965 381.000448,18.0008965 C385.970489,18.0008965 390,13.9714029 390,9.00044826 C390,4.02949366 385.970506,0 381.000448,0 Z M386.085702,6.51092779 L379.893393,12.7032362 C379.883493,12.7131367 379.880793,12.7257373 379.869992,12.7356378 C379.518974,13.0875553 378.986148,13.1253572 378.681933,12.820242 L378.61713,12.7554388 C378.608129,12.7473384 378.596429,12.7446383 378.587428,12.7356378 C378.578428,12.7275374 378.575728,12.7158368 378.567627,12.7068364 L375.856699,9.99499428 C375.551584,9.69077913 375.589386,9.15795259 375.941303,8.80693511 C376.292321,8.45501758 376.824247,8.4172157 377.129362,8.7223309 L379.229174,10.8221425 L384.813056,5.23826089 L384.813056,5.23826089 C385.163896,4.88682503 385.733202,4.88633985 386.084638,5.23717979 C386.084999,5.23753985 386.085359,5.23790021 386.085719,5.23826089 C386.437637,5.58927837 386.437637,6.15900674 386.085719,6.51092427 L386.085702,6.51092779 Z" id="形状"></path>
            </g>
        </g>
    </g>
</svg>